<svg aria-hidden="true" style="position: absolute; width: 0; height: 0; overflow: hidden;" version="1.1" xmlns="http://www.w3.org/2000/svg" xmlns:xlink="http://www.w3.org/1999/xlink">
  <defs>
    <symbol id="icon-btn-hero" viewBox="0 0 60 32">
      <path d="M2 14c-1.105 0-2 0.895-2 2s0.895 2 2 2v0-4zM59.414 17.414c0.362-0.362 0.586-0.862 0.586-1.414s-0.224-1.052-0.586-1.414l-12.728-12.728c-0.364-0.377-0.874-0.611-1.439-0.611-1.105 0-2 0.895-2 2 0 0.565 0.234 1.074 0.61 1.438l0.001 0.001 11.314 11.314-11.314 11.314c-0.347 0.359-0.561 0.849-0.561 1.389 0 1.105 0.895 2 2 2 0.54 0 1.030-0.214 1.39-0.562l-0.001 0.001 12.728-12.728zM2 18h56v-4h-56v4z"></path>
    </symbol>
    <symbol id="icon-favicon" viewBox="0 0 32 32">
      <path fill="#f0f0f0" style="fill: var(--color1, #f0f0f0)" d="M4 0h24c2.209 0 4 1.791 4 4v24c0 2.209-1.791 4-4 4h-24c-2.209 0-4-1.791-4-4v-24c0-2.209 1.791-4 4-4z"></path>
      <path d="M3 9.5h2.58c1.664 0 2.788 0.074 3.372 0.224 0.588 0.15 1.036 0.396 1.342 0.74 0.306 0.342 0.496 0.724 0.574 1.148 0.076 0.418 0.114 1.24 0.114 2.472v4.556c0 1.166-0.058 1.948-0.172 2.344-0.095 0.373-0.3 0.69-0.577 0.922l-0.003 0.002c-0.28 0.22-0.624 0.374-1.032 0.466-0.41 0.086-1.026 0.128-1.852 0.128h-4.346v-13zM6.446 11.724v8.552c0.498 0 0.802-0.096 0.918-0.29 0.114-0.198 0.172-0.73 0.172-1.598v-5.048c0-0.588-0.020-0.966-0.058-1.132-0.031-0.156-0.128-0.285-0.259-0.359l-0.003-0.001c-0.136-0.080-0.392-0.12-0.77-0.12zM13.052 9.5h5.748v2.6h-2.3v2.466h2.152v2.474h-2.152v2.86h2.528v2.6h-5.976v-13zM29 9.5l-1.752 13h-5.232l-1.988-13h3.634c0.42 3.58 0.72 6.608 0.9 9.080 0.18-2.5 0.37-4.72 0.566-6.664l0.238-2.416h3.634z"></path>
    </symbol>
    <symbol id="icon-menu-burger" viewBox="0 0 32 32">
      <path d="M5.334 23.027v-1.333h21.333v1.333h-21.333zM5.334 16.667v-1.333h21.333v1.333h-21.333zM5.334 10.307v-1.333h21.333v1.333h-21.333z"></path>
    </symbol>
    <symbol id="icon-close" viewBox="0 0 32 32">
      <path stroke-linejoin="round" stroke-linecap="round" stroke-miterlimit="4" stroke-width="2" d="M24 8l-16 16M8 8l16 16"></path>
    </symbol>
    <symbol id="icon-map" viewBox="0 0 32 32">
      <path stroke-linejoin="round" stroke-linecap="round" stroke-miterlimit="4" stroke-width="1.3333" d="M20 14c0 1.061-0.421 2.078-1.172 2.828s-1.768 1.172-2.828 1.172c-1.061 0-2.078-0.421-2.828-1.172s-1.172-1.768-1.172-2.828c0-1.061 0.421-2.078 1.172-2.828s1.768-1.172 2.828-1.172c1.061 0 2.078 0.421 2.828 1.172s1.172 1.768 1.172 2.828v0z"></path>
      <path stroke-linejoin="round" stroke-linecap="round" stroke-miterlimit="4" stroke-width="1.3333" d="M26 14c0 9.523-10 15-10 15s-10-5.477-10-15c0-2.652 1.054-5.196 2.929-7.071s4.419-2.929 7.071-2.929c2.652 0 5.196 1.054 7.071 2.929s2.929 4.419 2.929 7.071v0z"></path>
    </symbol>
    <symbol id="icon-topic-light" viewBox="0 0 32 32">
      <path fill="#e4e5e6" style="fill: var(--color1, #e4e5e6)" d="M8 8h16c4.418 0 8 3.582 8 8s-3.582 8-8 8h-16c-4.418 0-8-3.582-8-8s3.582-8 8-8z"></path>
      <path fill="#00b068" style="fill: var(--color2, #00b068)" d="M14.667 16c0 3.682-2.985 6.667-6.667 6.667s-6.667-2.985-6.667-6.667c0-3.682 2.985-6.667 6.667-6.667s6.667 2.985 6.667 6.667z"></path>
    </symbol>
    <symbol id="icon-btn-left" viewBox="0 0 32 32">
      <path stroke-linejoin="miter" stroke-linecap="butt" stroke-miterlimit="4" stroke-width="0.6667" d="M26.667 31.667h-21.333c-2.761 0-5-2.239-5-5v-21.333c0-2.761 2.239-5 5-5h21.333c2.761 0 5 2.239 5 5v21.333c0 2.761-2.239 5-5 5z"></path>
      <path stroke-linejoin="round" stroke-linecap="round" stroke-miterlimit="4" stroke-width="1.3333" d="M21.333 16h-10.667M14.667 20l-4-4 4-4"></path>
    </symbol>
    <symbol id="icon-btn-right" viewBox="0 0 32 32">
      <path stroke-linejoin="miter" stroke-linecap="butt" stroke-miterlimit="4" stroke-width="0.6667" d="M5.333 0.333h21.333c2.761 0 5 2.239 5 5v21.333c0 2.761-2.239 5-5 5h-21.333c-2.761 0-5-2.239-5-5v-21.333c0-2.761 2.239-5 5-5z"></path>
      <path stroke-linejoin="round" stroke-linecap="round" stroke-miterlimit="4" stroke-width="1.3333" d="M10.667 16h10.667M17.333 12l4 4-4 4"></path>
    </symbol>
    <symbol id="icon-topic-dark" viewBox="0 0 32 32">
      <path fill="#292929" style="fill: var(--color3, #292929)" d="M8 8h16c4.418 0 8 3.582 8 8s-3.582 8-8 8h-16c-4.418 0-8-3.582-8-8s3.582-8 8-8z"></path>
      <path fill="#00b068" style="fill: var(--color2, #00b068)" d="M21.333 22.112c2.355-1.029 4-3.378 4-6.112s-1.645-5.083-4-6.112c0.783-0.351 1.696-0.555 2.658-0.555 0.003 0 0.006 0 0.010 0h-0c3.682 0 6.667 2.985 6.667 6.667s-2.985 6.667-6.667 6.667c-0.003 0-0.006 0-0.009 0-0.961 0-1.875-0.204-2.7-0.571l0.042 0.017z"></path>
    </symbol>
    <symbol id="icon-btn-up" viewBox="0 0 32 32" fill="none">
      <path d="M22 19L16 13L10 19" style="stroke: var(--icon-color, #292929)" stroke-width="2" stroke-linecap="round"/>
    </symbol>
    <symbol id="icon-btn-down" viewBox="0 0 32 32" fill="none">
      <path d="M22 13L16 19L10 13" style="stroke: var(--icon-color, #292929)" stroke-width="2" stroke-linecap="round"/>
    </symbol>
    <symbol id="icon-tel" viewBox="0 0 32 32">
      <path stroke-linejoin="round" stroke-linecap="round" stroke-miterlimit="4" stroke-width="1.3333" d="M3 9c0 11.045 8.955 20 20 20h3c1.657 0 3-1.343 3-3v0-1.829c0-0.688-0.468-1.288-1.136-1.455l-5.897-1.475c-0.587-0.147-1.203 0.073-1.564 0.556l-1.293 1.724c-0.376 0.501-1.025 0.723-1.613 0.507-4.43-1.661-7.863-5.094-9.488-9.413l-0.036-0.111c-0.216-0.588 0.005-1.237 0.507-1.613l1.724-1.293c0.484-0.361 0.703-0.979 0.556-1.564l-1.475-5.897c-0.169-0.657-0.756-1.136-1.455-1.136h-1.829c-1.657 0-3 1.343-3 3v0 3z"></path>
    </symbol>
    <symbol id="icon-Btn-above-right" viewBox="0 0 32 32">
      <path stroke-linejoin="round" stroke-linecap="round" stroke-miterlimit="4" stroke-width="2.6667" d="M6.333 25.667l19.333-19.333M25.667 6.333h-18M25.667 6.333v18"></path>
    </symbol>
    <symbol id="icon-Vector-above-right-24" viewBox="0 0 32 32">
      <path fill="none" stroke="#00b068" style="stroke: var(--color1, #00b068)" stroke-linejoin="round" stroke-linecap="round" stroke-miterlimit="4" stroke-width="3.5556" d="M3.111 28.889l25.778-25.778M28.889 3.111h-24M28.889 3.111v24"></path>
    </symbol>
    <symbol id="icon-Line-below" viewBox="0 0 1712 32">
      <path fill="#00b068" style="fill: var(--color1, #00b068)" d="M16 0c-8.837 0-16 7.163-16 16s7.163 16 16 16v-32zM16 32l1696 0v-32l-1696-0v32z"></path>
    </symbol>
    <symbol id="icon-email" viewBox="0 0 32 32">
      <path stroke-linejoin="round" stroke-linecap="round" stroke-miterlimit="4" stroke-width="1.3333" d="M29 9v14c0 1.657-1.343 3-3 3v0h-20c-1.657 0-3-1.343-3-3v0-14M29 9c0-1.657-1.343-3-3-3v0h-20c-1.657 0-3 1.343-3 3v0M29 9v0.324c0 0 0 0 0 0 0 1.075-0.565 2.017-1.414 2.547l-0.013 0.007-10 6.153c-0.447 0.28-0.991 0.446-1.573 0.446s-1.126-0.166-1.586-0.453l0.013 0.007-10-6.152c-0.862-0.537-1.427-1.48-1.427-2.554 0-0 0-0 0-0v0-0.325"></path>
    </symbol>
    <symbol id="icon-message" viewBox="0 0 32 32">
      <path fill="none" stroke="#00b068" style="stroke: var(--color1, #00b068)" stroke-linejoin="round" stroke-linecap="round" stroke-miterlimit="4" stroke-width="2.7826" d="M7.088 14.927c-0.086-0.557-0.131-1.128-0.131-1.71 0-6.147 5.016-11.13 11.204-11.13s11.204 4.983 11.204 11.13c0 1.389-0.256 2.718-0.723 3.944-0.097 0.255-0.146 0.382-0.168 0.481s-0.030 0.168-0.033 0.269c-0.002 0.102 0.011 0.214 0.039 0.438l0.56 4.55c0.061 0.493 0.091 0.739 0.009 0.918-0.072 0.157-0.199 0.281-0.358 0.35-0.181 0.078-0.426 0.042-0.917-0.030l-4.432-0.65c-0.232-0.034-0.347-0.051-0.453-0.050-0.104 0.001-0.176 0.008-0.278 0.030s-0.235 0.071-0.498 0.17c-1.229 0.46-2.561 0.712-3.952 0.712-0.582 0-1.153-0.044-1.711-0.129M9.227 29.913c4.125 0 7.469-3.426 7.469-7.652s-3.344-7.652-7.469-7.652c-4.125 0-7.469 3.426-7.469 7.652 0 0.85 0.135 1.667 0.385 2.43 0.105 0.323 0.158 0.484 0.175 0.594 0.018 0.115 0.021 0.18 0.014 0.296-0.006 0.111-0.034 0.237-0.090 0.489l-0.851 3.842 4.167-0.569c0.227-0.031 0.341-0.047 0.44-0.046 0.105 0.001 0.16 0.006 0.263 0.027 0.097 0.019 0.242 0.070 0.532 0.173 0.763 0.269 1.582 0.415 2.434 0.415z"></path>
    </symbol>
    <symbol id="icon-time" viewBox="0 0 32 32">
      <path fill="none" stroke="#00b068" style="stroke: var(--color1, #00b068)" stroke-linejoin="round" stroke-linecap="round" stroke-miterlimit="4" stroke-width="2.9091" d="M24.964 1.455h-17.927c-0.673 0-1.218 0.545-1.218 1.218 0 3.877 1.54 7.595 4.281 10.336l1.773 1.773c0.176 0.176 0.264 0.264 0.327 0.349 0.385 0.516 0.385 1.223 0 1.739-0.063 0.084-0.151 0.173-0.327 0.349l-1.773 1.773c-2.741 2.741-4.281 6.459-4.281 10.336 0 0.673 0.545 1.218 1.218 1.218h17.927c0.673 0 1.218-0.545 1.218-1.218 0-3.877-1.54-7.595-4.281-10.336l-1.773-1.773c-0.176-0.176-0.264-0.264-0.327-0.349-0.385-0.516-0.385-1.223 0-1.739 0.063-0.085 0.151-0.173 0.327-0.349l1.773-1.773c2.741-2.741 4.281-6.459 4.281-10.336 0-0.673-0.545-1.218-1.218-1.218z"></path>
    </symbol>
    <symbol id="icon-person" viewBox="0 0 32 32">
      <path fill="none" stroke="#00b068" style="stroke: var(--color1, #00b068)" stroke-linejoin="round" stroke-linecap="round" stroke-miterlimit="4" stroke-width="2.6667" d="M26.667 28c0-1.861 0-2.791-0.23-3.548-0.517-1.705-1.851-3.039-3.556-3.556-0.757-0.23-1.687-0.23-3.548-0.23h-6.667c-1.861 0-2.791 0-3.548 0.23-1.705 0.517-3.038 1.851-3.556 3.556-0.23 0.757-0.23 1.687-0.23 3.548"></path>
      <path fill="none" stroke="#00b068" style="stroke: var(--color1, #00b068)" stroke-linejoin="round" stroke-linecap="round" stroke-miterlimit="4" stroke-width="2.6667" d="M16 16c3.314 0 6-2.686 6-6s-2.686-6-6-6c-3.314 0-6 2.686-6 6s2.686 6 6 6z"></path>
    </symbol>
    <symbol id="icon-handle" viewBox="0 0 32 32">
      <path fill="#e4e5e6" style="fill: var(--color1, #e4e5e6)" d="M5.333 0h21.333c2.946 0 5.333 2.388 5.333 5.333v21.333c0 2.946-2.388 5.333-5.333 5.333h-21.333c-2.946 0-5.333-2.388-5.333-5.333v-21.333c0-2.946 2.388-5.333 5.333-5.333z"></path>
      <path stroke-linejoin="round" stroke-linecap="round" stroke-miterlimit="4" stroke-width="1.3333" d="M16.519 18l-2.519-2.518M9.333 22.667c1.333 0 3.072 0.227 3.983-0.684 0.422-0.422 0.683-1.006 0.683-1.65 0-1.289-1.045-2.333-2.333-2.333-0.644 0-1.228 0.261-1.65 0.683v0c-0.911 0.911 0 2.651-0.683 3.984z"></path>
      <path stroke-linejoin="round" stroke-linecap="round" stroke-miterlimit="4" stroke-width="1.3333" d="M13.333 18.667c-0.327-0.328-0.491-0.492-0.584-0.663-0.101-0.183-0.16-0.401-0.16-0.633 0-0.25 0.069-0.484 0.189-0.684l-0.003 0.006c0.099-0.168 0.269-0.325 0.609-0.64l6.579-6.092c0.263-0.251 0.62-0.405 1.013-0.405 0.811 0 1.469 0.658 1.469 1.469 0 0.393-0.154 0.75-0.406 1.014l0.001-0.001-6.091 6.579c-0.315 0.34-0.473 0.51-0.64 0.609-0.194 0.117-0.428 0.186-0.678 0.186-0.232 0-0.45-0.059-0.641-0.164l0.007 0.003c-0.171-0.093-0.335-0.256-0.663-0.584z"></path>
    </symbol>
    <symbol id="icon-success-filled" viewBox="0 0 32 32">
      <path d="M16 2c7.732 0 14 6.268 14 14s-6.268 14-14 14v0c-7.732 0-14-6.268-14-14s6.268-14 14-14v0zM14.256 18.762l-3.11-3.112c-0.217-0.217-0.517-0.352-0.849-0.352-0.663 0-1.201 0.538-1.201 1.201 0 0.332 0.134 0.632 0.352 0.849l3.96 3.96c0.217 0.218 0.517 0.354 0.849 0.354s0.632-0.135 0.849-0.354l8.2-8.202c0.222-0.218 0.359-0.521 0.359-0.856 0-0.663-0.537-1.2-1.2-1.2-0.335 0-0.637 0.137-0.855 0.358l-7.354 7.354z"></path>
    </symbol>
    <symbol id="icon-paint" viewBox="0 0 32 32">
      <path fill="none" stroke="#00b068" style="stroke: var(--color1, #00b068)" stroke-linejoin="round" stroke-linecap="round" stroke-miterlimit="4" stroke-width="2.7826" d="M2.087 29.216c2.783 0 6.411 0.475 8.313-1.426s1.902-4.985 0-6.887c-1.902-1.902-4.985-1.902-6.887 0s0 5.53-1.426 8.313z"></path>
      <path fill="none" stroke="#00b068" style="stroke: var(--color1, #00b068)" stroke-linejoin="round" stroke-linecap="round" stroke-miterlimit="4" stroke-width="2.7826" d="M10.435 20.868c-0.684-0.684-1.026-1.026-1.219-1.384-0.463-0.859-0.444-1.897 0.053-2.737 0.207-0.35 0.562-0.679 1.271-1.336l13.729-12.712c1.209-1.12 3.087-1.084 4.253 0.082s1.202 3.043 0.082 4.253l-12.713 13.729c-0.657 0.709-0.985 1.064-1.336 1.271-0.84 0.496-1.879 0.516-2.737 0.053-0.358-0.193-0.7-0.535-1.384-1.219z"></path>
    </symbol>
  </defs>
</svg>


