<svg aria-hidden="true" style="position: absolute; width: 0; height: 0; overflow: hidden;" version="1.1" xmlns="http://www.w3.org/2000/svg" xmlns:xlink="http://www.w3.org/1999/xlink">
<defs>
<symbol id="icon-menu-burger" viewBox="0 0 32 32">
<path d="M5.334 23.027v-1.333h21.333v1.333h-21.333zM5.334 16.667v-1.333h21.333v1.333h-21.333zM5.334 10.307v-1.333h21.333v1.333h-21.333z"></path>
</symbol>

<symbol id="icon-close" viewBox="0 0 32 32">
<path stroke-linejoin="round" stroke-linecap="round" stroke-miterlimit="4" stroke-width="2" d="M24 8l-16 16M8 8l16 16"></path>
</symbol>

<symbol id="icon-map" viewBox="0 0 32 32">
<path stroke-linejoin="round" stroke-linecap="round" stroke-miterlimit="4" stroke-width="1.3333" d="M20 14c0 1.061-0.421 2.078-1.172 2.828s-1.768 1.172-2.828 1.172c-1.061 0-2.078-0.421-2.828-1.172s-1.172-1.768-1.172-2.828c0-1.061 0.421-2.078 1.172-2.828s1.768-1.172 2.828-1.172c1.061 0 2.078 0.421 2.828 1.172s1.172 1.768 1.172 2.828v0z"></path>
<path stroke-linejoin="round" stroke-linecap="round" stroke-miterlimit="4" stroke-width="1.3333" d="M26 14c0 9.523-10 15-10 15s-10-5.477-10-15c0-2.652 1.054-5.196 2.929-7.071s4.419-2.929 7.071-2.929c2.652 0 5.196 1.054 7.071 2.929s2.929 4.419 2.929 7.071v0z"></path>
</symbol>

<symbol id="icon-topic-light" viewBox="0 0 32 32">
<path fill="#e4e5e6" style="fill: var(--color1, #e4e5e6)" d="M8 8h16c4.418 0 8 3.582 8 8s-3.582 8-8 8h-16c-4.418 0-8-3.582-8-8s3.582-8 8-8z"></path>
<path fill="#00b068" style="fill: var(--color2, #00b068)" d="M14.667 16c0 3.682-2.985 6.667-6.667 6.667s-6.667-2.985-6.667-6.667c0-3.682 2.985-6.667 6.667-6.667s6.667 2.985 6.667 6.667z"></path>
</symbol>

<symbol id="icon-btn-left" viewBox="0 0 32 32">
<path stroke-linejoin="miter" stroke-linecap="butt" stroke-miterlimit="4" stroke-width="0.6667" d="M26.667 31.667h-21.333c-2.761 0-5-2.239-5-5v-21.333c0-2.761 2.239-5 5-5h21.333c2.761 0 5 2.239 5 5v21.333c0 2.761-2.239 5-5 5z"></path>
<path stroke-linejoin="round" stroke-linecap="round" stroke-miterlimit="4" stroke-width="1.3333" d="M21.333 16h-10.667M14.667 20l-4-4 4-4"></path>
</symbol>

<symbol id="icon-btn-right" viewBox="0 0 32 32">
<path fill="#e4e5e6" style="fill: var(--color1, #e4e5e6)" d="M5.333 0.333h21.333c2.761 0 5 2.239 5 5v21.333c0 2.761-2.239 5-5 5h-21.333c-2.761 0-5-2.239-5-5v-21.333c0-2.761 2.239-5 5-5z"></path>
<path stroke-linejoin="miter" stroke-linecap="butt" stroke-miterlimit="4" stroke-width="0.6667" d="M5.333 0.333h21.333c2.761 0 5 2.239 5 5v21.333c0 2.761-2.239 5-5 5h-21.333c-2.761 0-5-2.239-5-5v-21.333c0-2.761 2.239-5 5-5z"></path>
<path stroke-linejoin="round" stroke-linecap="round" stroke-miterlimit="4" stroke-width="1.3333" d="M10.667 16h10.667M17.333 12l4 4-4 4"></path>
</symbol>

<symbol id="icon-topic-dark" viewBox="0 0 32 32">
<path fill="#292929" style="fill: var(--color3, #292929)" d="M8 8h16c4.418 0 8 3.582 8 8s-3.582 8-8 8h-16c-4.418 0-8-3.582-8-8s3.582-8 8-8z"></path>
<path fill="#00b068" style="fill: var(--color2, #00b068)" d="M21.333 22.112c2.355-1.029 4-3.378 4-6.112s-1.645-5.083-4-6.112c0.783-0.351 1.696-0.555 2.658-0.555 0.003 0 0.006 0 0.010 0h-0c3.682 0 6.667 2.985 6.667 6.667s-2.985 6.667-6.667 6.667c-0.003 0-0.006 0-0.009 0-0.961 0-1.875-0.204-2.7-0.571l0.042 0.017z"></path>
</symbol>

<symbol id="icon-btn-up" viewBox="0 0 32 32">
<path stroke-linejoin="miter" stroke-linecap="round" stroke-miterlimit="4" stroke-width="2" d="M22 19l-6-6-6 6"></path>
</symbol>

<symbol id="icon-btn-down" viewBox="0 0 32 32">
<path stroke-linejoin="miter" stroke-linecap="round" stroke-miterlimit="4" stroke-width="2" d="M22 13l-6 6-6-6"></path>
</symbol>

<symbol id="icon-tel" viewBox="0 0 32 32">
<path stroke-linejoin="round" stroke-linecap="round" stroke-miterlimit="4" stroke-width="1.3333" d="M3 9c0 11.045 8.955 20 20 20h3c1.657 0 3-1.343 3-3v0-1.829c0-0.688-0.468-1.288-1.136-1.455l-5.897-1.475c-0.587-0.147-1.203 0.073-1.564 0.556l-1.293 1.724c-0.376 0.501-1.025 0.723-1.613 0.507-4.43-1.661-7.863-5.094-9.488-9.413l-0.036-0.111c-0.216-0.588 0.005-1.237 0.507-1.613l1.724-1.293c0.484-0.361 0.703-0.979 0.556-1.564l-1.475-5.897c-0.169-0.657-0.756-1.136-1.455-1.136h-1.829c-1.657 0-3 1.343-3 3v0 3z"></path>
</symbol>

<symbol id="icon-Btn-above-right" viewBox="0 0 32 32">
<path stroke-linejoin="round" stroke-linecap="round" stroke-miterlimit="4" stroke-width="2.6667" d="M6.333 25.667l19.333-19.333M25.667 6.333h-18M25.667 6.333v18"></path>
</symbol>

<symbol id="icon-email" viewBox="0 0 32 32">
<path stroke-linejoin="round" stroke-linecap="round" stroke-miterlimit="4" stroke-width="1.3333" d="M29 9v14c0 1.657-1.343 3-3 3v0h-20c-1.657 0-3-1.343-3-3v0-14M29 9c0-1.657-1.343-3-3-3v0h-20c-1.657 0-3 1.343-3 3v0M29 9v0.324c0 0 0 0 0 0 0 1.075-0.565 2.017-1.414 2.547l-0.013 0.007-10 6.153c-0.447 0.28-0.991 0.446-1.573 0.446s-1.126-0.166-1.586-0.453l0.013 0.007-10-6.152c-0.862-0.537-1.427-1.48-1.427-2.554 0-0 0-0 0-0v0-0.325"></path>
</symbol>

<symbol id="icon-message" viewBox="0 0 32 32">
<path fill="#e4e5e6" style="fill: var(--color1, #e4e5e6)" d="M5.333 0h21.333c2.946 0 5.333 2.388 5.333 5.333v21.333c0 2.946-2.388 5.333-5.333 5.333h-21.333c-2.946 0-5.333-2.388-5.333-5.333v-21.333c0-2.946 2.388-5.333 5.333-5.333z"></path>
<path stroke-linejoin="round" stroke-linecap="round" stroke-miterlimit="4" stroke-width="1.3333" d="M12.063 15.486c-0.041-0.267-0.063-0.541-0.063-0.819 0-2.945 2.403-5.333 5.369-5.333s5.368 2.388 5.368 5.333c0 0.665-0.123 1.302-0.347 1.889-0.047 0.122-0.070 0.183-0.080 0.231-0.010 0.039-0.015 0.083-0.016 0.129v0c-0.001 0.049 0.005 0.102 0.019 0.209l0.269 2.18c0.029 0.237 0.043 0.355 0.004 0.44-0.035 0.076-0.095 0.134-0.169 0.167l-0.002 0.001c-0.087 0.037-0.204 0.020-0.44-0.015l-2.123-0.311c-0.111-0.016-0.167-0.025-0.217-0.024-0.001 0-0.003-0-0.005-0-0.046 0-0.090 0.005-0.133 0.015l0.004-0.001c-0.049 0.011-0.113 0.034-0.239 0.081-0.564 0.216-1.217 0.341-1.898 0.341-0.288 0-0.57-0.022-0.846-0.065l0.031 0.004M13.088 22.667c1.976 0 3.579-1.641 3.579-3.667s-1.603-3.667-3.579-3.667c-1.977 0-3.579 1.641-3.579 3.667 0 0.407 0.065 0.799 0.185 1.165 0.050 0.155 0.075 0.232 0.084 0.285 0.009 0.055 0.010 0.087 0.007 0.142-0.003 0.053-0.017 0.113-0.043 0.234l-0.407 1.841 1.997-0.273c0.109-0.015 0.163-0.023 0.211-0.022 0.051 0 0.077 0.003 0.127 0.013 0.047 0.009 0.115 0.033 0.254 0.082 0.347 0.126 0.747 0.199 1.164 0.199 0.001 0 0.002 0 0.003 0h-0z"></path>
</symbol>

<symbol id="icon-times" viewBox="0 0 32 32">
<path fill="#e4e5e6" style="fill: var(--color1, #e4e5e6)" d="M5.333 0h21.333c2.946 0 5.333 2.388 5.333 5.333v21.333c0 2.946-2.388 5.333-5.333 5.333h-21.333c-2.946 0-5.333-2.388-5.333-5.333v-21.333c0-2.946 2.388-5.333 5.333-5.333z"></path>
<path stroke-linejoin="round" stroke-linecap="round" stroke-miterlimit="4" stroke-width="1.3333" d="M20.109 9.333h-8.217c-0.308 0-0.558 0.25-0.558 0.558v0c0 0 0 0 0 0 0 1.85 0.75 3.525 1.962 4.737l0.813 0.813c0.080 0.080 0.121 0.121 0.149 0.16 0.082 0.11 0.132 0.248 0.132 0.398s-0.050 0.289-0.133 0.4l0.001-0.002c-0.029 0.039-0.069 0.079-0.149 0.16l-0.813 0.813c-1.212 1.212-1.962 2.887-1.962 4.737 0 0 0 0 0 0v0c0 0.308 0.25 0.558 0.558 0.558h8.217c0.308 0 0.558-0.25 0.558-0.558v0c0-0 0-0 0-0 0-1.85-0.75-3.525-1.962-4.737l-0.813-0.813c-0.080-0.080-0.121-0.121-0.149-0.16-0.082-0.11-0.132-0.248-0.132-0.398s0.050-0.289 0.133-0.4l-0.001 0.002c0.029-0.039 0.069-0.079 0.149-0.16l0.813-0.813c1.212-1.212 1.962-2.887 1.962-4.737 0-0 0-0 0-0v0c0-0.308-0.25-0.558-0.558-0.558v0z"></path>
</symbol>

<symbol id="icon-person" viewBox="0 0 32 32">
<path fill="#e4e5e6" style="fill: var(--color1, #e4e5e6)" d="M5.333 0h21.333c2.946 0 5.333 2.388 5.333 5.333v21.333c0 2.946-2.388 5.333-5.333 5.333h-21.333c-2.946 0-5.333-2.388-5.333-5.333v-21.333c0-2.946 2.388-5.333 5.333-5.333z"></path>
<path stroke-linejoin="round" stroke-linecap="round" stroke-miterlimit="4" stroke-width="1.3333" d="M21.333 22c0-0.931 0-1.395-0.115-1.774-0.265-0.854-0.924-1.513-1.759-1.773l-0.019-0.005c-0.379-0.115-0.843-0.115-1.774-0.115h-3.333c-0.931 0-1.395 0-1.774 0.115-0.854 0.265-1.513 0.924-1.773 1.759l-0.005 0.019c-0.115 0.379-0.115 0.843-0.115 1.774M16 16c1.657 0 3-1.343 3-3s-1.343-3-3-3v0c-1.657 0-3 1.343-3 3s1.343 3 3 3v0z"></path>
</symbol>

<symbol id="icon-handle" viewBox="0 0 32 32">
<path fill="#e4e5e6" style="fill: var(--color1, #e4e5e6)" d="M5.333 0h21.333c2.946 0 5.333 2.388 5.333 5.333v21.333c0 2.946-2.388 5.333-5.333 5.333h-21.333c-2.946 0-5.333-2.388-5.333-5.333v-21.333c0-2.946 2.388-5.333 5.333-5.333z"></path>
<path stroke-linejoin="round" stroke-linecap="round" stroke-miterlimit="4" stroke-width="1.3333" d="M16.519 18l-2.519-2.518M9.333 22.667c1.333 0 3.072 0.227 3.983-0.684 0.422-0.422 0.683-1.006 0.683-1.65 0-1.289-1.045-2.333-2.333-2.333-0.644 0-1.228 0.261-1.65 0.683v0c-0.911 0.911 0 2.651-0.683 3.984z"></path>
<path stroke-linejoin="round" stroke-linecap="round" stroke-miterlimit="4" stroke-width="1.3333" d="M13.333 18.667c-0.327-0.328-0.491-0.492-0.584-0.663-0.101-0.183-0.16-0.401-0.16-0.633 0-0.25 0.069-0.484 0.189-0.684l-0.003 0.006c0.099-0.168 0.269-0.325 0.609-0.64l6.579-6.092c0.263-0.251 0.62-0.405 1.013-0.405 0.811 0 1.469 0.658 1.469 1.469 0 0.393-0.154 0.75-0.406 1.014l0.001-0.001-6.091 6.579c-0.315 0.34-0.473 0.51-0.64 0.609-0.194 0.117-0.428 0.186-0.678 0.186-0.232 0-0.45-0.059-0.641-0.164l0.007 0.003c-0.171-0.093-0.335-0.256-0.663-0.584z"></path>
</symbol>

<symbol id="icon-success-filled" viewBox="0 0 32 32">
<path d="M16 2c7.732 0 14 6.268 14 14s-6.268 14-14 14v0c-7.732 0-14-6.268-14-14s6.268-14 14-14v0zM14.256 18.762l-3.11-3.112c-0.217-0.217-0.517-0.352-0.849-0.352-0.663 0-1.201 0.538-1.201 1.201 0 0.332 0.134 0.632 0.352 0.849l3.96 3.96c0.217 0.218 0.517 0.354 0.849 0.354s0.632-0.135 0.849-0.354l8.2-8.202c0.222-0.218 0.359-0.521 0.359-0.856 0-0.663-0.537-1.2-1.2-1.2-0.335 0-0.637 0.137-0.855 0.358l-7.354 7.354z"></path>
</symbol>


</defs>
</svg>

